<?xml version="1.0" encoding="UTF-8" standalone="no"?>
<!DOCTYPE svg PUBLIC "-//W3C//DTD SVG 1.1//EN"
 "http://www.w3.org/Graphics/SVG/1.1/DTD/svg11.dtd">
<!-- Generated by graphviz version 2.50.0 (0)
 -->
<!-- Title: snakemake_dag Pages: 1 -->
<svg width="274pt" height="260pt"
 viewBox="0.00 0.00 274.00 260.00" xmlns="http://www.w3.org/2000/svg" xmlns:xlink="http://www.w3.org/1999/xlink">
<g id="graph0" class="graph" transform="scale(1 1) rotate(0) translate(4 256)">
<title>snakemake_dag</title>
<polygon fill="white" stroke="transparent" points="-4,4 -4,-256 270,-256 270,4 -4,4"/>
<!-- 0 -->
<g id="node1" class="node">
<title>0</title>
<path fill="none" stroke="#59d856" stroke-width="2" d="M132.5,-36C132.5,-36 79.5,-36 79.5,-36 73.5,-36 67.5,-30 67.5,-24 67.5,-24 67.5,-12 67.5,-12 67.5,-6 73.5,0 79.5,0 79.5,0 132.5,0 132.5,0 138.5,0 144.5,-6 144.5,-12 144.5,-12 144.5,-24 144.5,-24 144.5,-30 138.5,-36 132.5,-36"/>
<text text-anchor="middle" x="106" y="-15.5" font-family="sans" font-size="10.00">bcftools_call</text>
</g>
<!-- 1 -->
<g id="node2" class="node">
<title>1</title>
<path fill="none" stroke="#d85656" stroke-width="2" d="M104,-108C104,-108 34,-108 34,-108 28,-108 22,-102 22,-96 22,-96 22,-84 22,-84 22,-78 28,-72 34,-72 34,-72 104,-72 104,-72 110,-72 116,-78 116,-84 116,-84 116,-96 116,-96 116,-102 110,-108 104,-108"/>
<text text-anchor="middle" x="69" y="-87.5" font-family="sans" font-size="10.00">samtools_index</text>
</g>
<!-- 1&#45;&gt;0 -->
<g id="edge1" class="edge">
<title>1&#45;&gt;0</title>
<path fill="none" stroke="grey" stroke-width="2" d="M78.15,-71.7C82.4,-63.64 87.56,-53.89 92.27,-44.98"/>
<polygon fill="grey" stroke="grey" stroke-width="2" points="95.38,-46.58 96.96,-36.1 89.19,-43.31 95.38,-46.58"/>
</g>
<!-- 2 -->
<g id="node3" class="node">
<title>2</title>
<path fill="none" stroke="#d85656" stroke-width="2" d="M254,-108C254,-108 184,-108 184,-108 178,-108 172,-102 172,-96 172,-96 172,-84 172,-84 172,-78 178,-72 184,-72 184,-72 254,-72 254,-72 260,-72 266,-78 266,-84 266,-84 266,-96 266,-96 266,-102 260,-108 254,-108"/>
<text text-anchor="middle" x="219" y="-87.5" font-family="sans" font-size="10.00">samtools_index</text>
</g>
<!-- 2&#45;&gt;0 -->
<g id="edge2" class="edge">
<title>2&#45;&gt;0</title>
<path fill="none" stroke="grey" stroke-width="2" d="M191.36,-71.88C176.58,-62.72 158.21,-51.34 142.3,-41.48"/>
<polygon fill="grey" stroke="grey" stroke-width="2" points="144.09,-38.48 133.75,-36.19 140.41,-44.43 144.09,-38.48"/>
</g>
<!-- 3 -->
<g id="node4" class="node">
<title>3</title>
<path fill="none" stroke="#d6d856" stroke-width="2" d="M74,-180C74,-180 12,-180 12,-180 6,-180 0,-174 0,-168 0,-168 0,-156 0,-156 0,-150 6,-144 12,-144 12,-144 74,-144 74,-144 80,-144 86,-150 86,-156 86,-156 86,-168 86,-168 86,-174 80,-180 74,-180"/>
<text text-anchor="middle" x="43" y="-159.5" font-family="sans" font-size="10.00">samtools_sort</text>
</g>
<!-- 3&#45;&gt;0 -->
<g id="edge3" class="edge">
<title>3&#45;&gt;0</title>
<path fill="none" stroke="grey" stroke-width="2" d="M28.96,-143.74C15.66,-125.14 -0.44,-95.12 13,-72 22.85,-55.05 40.37,-43.07 57.56,-34.85"/>
<polygon fill="grey" stroke="grey" stroke-width="2" points="59.31,-37.9 67.03,-30.65 56.47,-31.5 59.31,-37.9"/>
</g>
<!-- 3&#45;&gt;1 -->
<g id="edge5" class="edge">
<title>3&#45;&gt;1</title>
<path fill="none" stroke="grey" stroke-width="2" d="M49.43,-143.7C52.36,-135.81 55.89,-126.3 59.14,-117.55"/>
<polygon fill="grey" stroke="grey" stroke-width="2" points="62.45,-118.7 62.65,-108.1 55.88,-116.26 62.45,-118.7"/>
</g>
<!-- 4 -->
<g id="node5" class="node">
<title>4</title>
<path fill="none" stroke="#d6d856" stroke-width="2" d="M201,-180C201,-180 139,-180 139,-180 133,-180 127,-174 127,-168 127,-168 127,-156 127,-156 127,-150 133,-144 139,-144 139,-144 201,-144 201,-144 207,-144 213,-150 213,-156 213,-156 213,-168 213,-168 213,-174 207,-180 201,-180"/>
<text text-anchor="middle" x="170" y="-159.5" font-family="sans" font-size="10.00">samtools_sort</text>
</g>
<!-- 4&#45;&gt;0 -->
<g id="edge4" class="edge">
<title>4&#45;&gt;0</title>
<path fill="none" stroke="grey" stroke-width="2" d="M162.28,-143.87C151.28,-119.46 130.98,-74.43 118,-45.64"/>
<polygon fill="grey" stroke="grey" stroke-width="2" points="121.05,-43.87 113.75,-36.19 114.67,-46.74 121.05,-43.87"/>
</g>
<!-- 4&#45;&gt;2 -->
<g id="edge6" class="edge">
<title>4&#45;&gt;2</title>
<path fill="none" stroke="grey" stroke-width="2" d="M182.11,-143.7C187.87,-135.47 194.86,-125.48 201.21,-116.42"/>
<polygon fill="grey" stroke="grey" stroke-width="2" points="204.16,-118.3 207.03,-108.1 198.42,-114.29 204.16,-118.3"/>
</g>
<!-- 5 -->
<g id="node6" class="node">
<title>5</title>
<path fill="none" stroke="#56d8d8" stroke-width="2" d="M63.5,-252C63.5,-252 22.5,-252 22.5,-252 16.5,-252 10.5,-246 10.5,-240 10.5,-240 10.5,-228 10.5,-228 10.5,-222 16.5,-216 22.5,-216 22.5,-216 63.5,-216 63.5,-216 69.5,-216 75.5,-222 75.5,-228 75.5,-228 75.5,-240 75.5,-240 75.5,-246 69.5,-252 63.5,-252"/>
<text text-anchor="middle" x="43" y="-237" font-family="sans" font-size="10.00">bwa_map</text>
<text text-anchor="middle" x="43" y="-226" font-family="sans" font-size="10.00">sample: A</text>
</g>
<!-- 5&#45;&gt;3 -->
<g id="edge7" class="edge">
<title>5&#45;&gt;3</title>
<path fill="none" stroke="grey" stroke-width="2" d="M43,-215.7C43,-207.98 43,-198.71 43,-190.11"/>
<polygon fill="grey" stroke="grey" stroke-width="2" points="46.5,-190.1 43,-180.1 39.5,-190.1 46.5,-190.1"/>
</g>
<!-- 6 -->
<g id="node7" class="node">
<title>6</title>
<path fill="none" stroke="#56d8d8" stroke-width="2" d="M190.5,-252C190.5,-252 149.5,-252 149.5,-252 143.5,-252 137.5,-246 137.5,-240 137.5,-240 137.5,-228 137.5,-228 137.5,-222 143.5,-216 149.5,-216 149.5,-216 190.5,-216 190.5,-216 196.5,-216 202.5,-222 202.5,-228 202.5,-228 202.5,-240 202.5,-240 202.5,-246 196.5,-252 190.5,-252"/>
<text text-anchor="middle" x="170" y="-237" font-family="sans" font-size="10.00">bwa_map</text>
<text text-anchor="middle" x="170" y="-226" font-family="sans" font-size="10.00">sample: B</text>
</g>
<!-- 6&#45;&gt;4 -->
<g id="edge8" class="edge">
<title>6&#45;&gt;4</title>
<path fill="none" stroke="grey" stroke-width="2" d="M170,-215.7C170,-207.98 170,-198.71 170,-190.11"/>
<polygon fill="grey" stroke="grey" stroke-width="2" points="173.5,-190.1 170,-180.1 166.5,-190.1 173.5,-190.1"/>
</g>
</g>
</svg>
